<svg xmlns="http://www.w3.org/2000/svg" version="1.1" xmlns:xlink="http://www.w3.org/1999/xlink" xmlns:svgjs="http://svgjs.dev/svgjs" width="1500" height="598" viewBox="0 0 1500 598"><g transform="matrix(1,0,0,1,-0.9090909090911055,-0.8776643413948477)"><svg viewBox="0 0 396 158" data-background-color="#ffffff" preserveAspectRatio="xMidYMid meet" height="598" width="1500" xmlns="http://www.w3.org/2000/svg" xmlns:xlink="http://www.w3.org/1999/xlink"><g id="tight-bounds" transform="matrix(1,0,0,1,0.24000000000003752,0.23189124739195677)"><svg viewBox="0 0 395.5199999999999 157.5362175052161" height="157.5362175052161" width="395.5199999999999"><g><svg viewBox="0 0 395.5199999999999 157.5362175052161" height="157.5362175052161" width="395.5199999999999"><g transform="matrix(1,0,0,1,0,104.37874237880932)"><svg viewBox="0 0 395.5199999999999 53.15747512640678" height="53.15747512640678" width="395.5199999999999"><g id="textblocktransform"><svg viewBox="0 0 395.5199999999999 53.15747512640678" height="53.15747512640678" width="395.5199999999999" id="textblock"><g><svg viewBox="0 0 395.5199999999999 53.15747512640678" height="53.15747512640678" width="395.5199999999999"><g transform="matrix(1,0,0,1,0,0)"><svg width="395.5199999999999" viewBox="1.35 -40.35 306.51 41.2" height="53.15747512640678" data-palette-color="#000000"><path d="M29.95-34.65L32 0 24.6 0 24.3-13.75Q24.15-18.5 24.15-23L24.15-23Q24.15-26.15 24.2-27.65L24.2-27.65 20.35-3.7 13-3.7 8.95-27.7Q9.05-24.9 9.05-19.9L9.05-19.9Q9.05-15.85 9-13.65L9-13.65 8.7 0 1.35 0 3.45-34.65 13.15-34.65 16.8-10.95 20.1-34.65 29.95-34.65ZM55.8-13.8Q55.8-12.2 55.65-11.05L55.65-11.05 42.15-11.05Q42.4-7.45 43.47-6.08 44.55-4.7 46.6-4.7L46.6-4.7Q47.95-4.7 49.2-5.23 50.45-5.75 51.9-6.85L51.9-6.85 55-2.75Q51.3 0.85 46.05 0.85L46.05 0.85Q40.45 0.85 37.55-2.83 34.65-6.5 34.65-13.1L34.65-13.1Q34.65-19.7 37.42-23.55 40.2-27.4 45.35-27.4L45.35-27.4Q50.25-27.4 53.02-23.93 55.8-20.45 55.8-13.8L55.8-13.8ZM48.45-15.6L48.45-15.95Q48.45-19.35 47.77-20.88 47.1-22.4 45.4-22.4L45.4-22.4Q43.9-22.4 43.12-20.93 42.35-19.45 42.15-15.6L42.15-15.6 48.45-15.6ZM72.09-37.9L79.65-37.1 79.65 0 72.9 0 72.65-2.8Q71.5-1.1 70.05-0.13 68.59 0.85 66.55 0.85L66.55 0.85Q62.45 0.85 60.3-2.83 58.15-6.5 58.15-13.3L58.15-13.3Q58.15-17.55 59.3-20.75 60.45-23.95 62.5-25.68 64.55-27.4 67.15-27.4L67.15-27.4Q70.15-27.4 72.09-24.95L72.09-24.95 72.09-37.9ZM69-4.7Q70.75-4.7 72.09-7.3L72.09-7.3 72.09-19.7Q71.45-20.8 70.8-21.33 70.15-21.85 69.3-21.85L69.3-21.85Q65.9-21.85 65.9-13.3L65.9-13.3Q65.9-8.45 66.72-6.58 67.55-4.7 69-4.7L69-4.7ZM84.09-26.55L91.64-26.55 91.64 0 84.09 0 84.09-26.55ZM87.79-40.35Q89.74-40.35 90.92-39.13 92.09-37.9 92.09-36L92.09-36Q92.09-34.15 90.89-32.93 89.69-31.7 87.79-31.7L87.79-31.7Q85.89-31.7 84.69-32.93 83.49-34.15 83.49-36L83.49-36Q83.49-37.9 84.69-39.13 85.89-40.35 87.79-40.35L87.79-40.35ZM106.44-27.4Q108.74-27.4 110.59-26.6 112.44-25.8 114.04-24.15L114.04-24.15 110.94-20Q108.89-21.65 107.04-21.65L107.04-21.65Q104.99-21.65 103.99-19.78 102.99-17.9 102.99-13.1L102.99-13.1Q102.99-8.55 104.04-6.8 105.09-5.05 106.99-5.05L106.99-5.05Q107.99-5.05 108.84-5.4 109.69-5.75 110.79-6.6L110.79-6.6 114.04-2.25Q110.79 0.85 106.54 0.85L106.54 0.85Q101.14 0.85 98.14-2.68 95.14-6.2 95.14-13.05L95.14-13.05Q95.14-17.5 96.52-20.73 97.89-23.95 100.44-25.68 102.99-27.4 106.44-27.4L106.44-27.4ZM134.39-7.05Q134.39-5.8 134.69-5.2 134.99-4.6 135.74-4.25L135.74-4.25 134.19 0.7Q132.04 0.5 130.66-0.33 129.29-1.15 128.54-2.9L128.54-2.9Q126.24 0.85 121.99 0.85L121.99 0.85Q118.69 0.85 116.74-1.43 114.79-3.7 114.79-7.45L114.79-7.45Q114.79-11.8 117.49-14.08 120.19-16.35 125.39-16.35L125.39-16.35 126.99-16.35 126.99-17.75Q126.99-20.15 126.26-21.08 125.54-22 123.69-22L123.69-22Q121.39-22 117.99-20.65L117.99-20.65 116.29-25.45Q118.34-26.4 120.66-26.9 122.99-27.4 125.09-27.4L125.09-27.4Q129.79-27.4 132.09-25.13 134.39-22.85 134.39-18.15L134.39-18.15 134.39-7.05ZM124.29-4.5Q125.14-4.5 125.84-5.15 126.54-5.8 126.99-7L126.99-7 126.99-12.15 126.09-12.15Q124.04-12.15 123.11-11.18 122.19-10.2 122.19-8.1L122.19-8.1Q122.19-6.35 122.74-5.43 123.29-4.5 124.29-4.5L124.29-4.5ZM145.39 0.85Q142.24 0.85 140.49-1 138.74-2.85 138.74-6.05L138.74-6.05 138.74-37.1 146.29-37.9 146.29-6.4Q146.29-5.15 147.34-5.15L147.34-5.15Q147.64-5.15 148.24-5.3L148.24-5.3 149.59-0.1Q148.79 0.3 147.69 0.58 146.59 0.85 145.39 0.85L145.39 0.85ZM169.88-34.65Q176.33-34.65 179.73-31.8 183.13-28.95 183.13-23.4L183.13-23.4Q183.13-17.6 179.88-14.63 176.63-11.65 170.68-11.65L170.68-11.65 168.83-11.65 168.83 0 160.98 0 160.98-34.65 169.88-34.65ZM170.03-17.35Q172.73-17.35 173.91-18.73 175.08-20.1 175.08-23.4L175.08-23.4Q175.08-26.3 173.96-27.68 172.83-29.05 170.13-29.05L170.13-29.05 168.83-29.05 168.83-17.35 170.03-17.35ZM192.28 0.85Q189.13 0.85 187.38-1 185.63-2.85 185.63-6.05L185.63-6.05 185.63-37.1 193.18-37.9 193.18-6.4Q193.18-5.15 194.23-5.15L194.23-5.15Q194.53-5.15 195.13-5.3L195.13-5.3 196.48-0.1Q195.68 0.3 194.58 0.58 193.48 0.85 192.28 0.85L192.28 0.85ZM216.82-7.05Q216.82-5.8 217.13-5.2 217.42-4.6 218.17-4.25L218.17-4.25 216.63 0.7Q214.47 0.5 213.1-0.33 211.72-1.15 210.97-2.9L210.97-2.9Q208.67 0.85 204.42 0.85L204.42 0.85Q201.13 0.85 199.17-1.43 197.22-3.7 197.22-7.45L197.22-7.45Q197.22-11.8 199.92-14.08 202.63-16.35 207.82-16.35L207.82-16.35 209.42-16.35 209.42-17.75Q209.42-20.15 208.7-21.08 207.97-22 206.13-22L206.13-22Q203.82-22 200.42-20.65L200.42-20.65 198.72-25.45Q200.77-26.4 203.1-26.9 205.42-27.4 207.52-27.4L207.52-27.4Q212.22-27.4 214.52-25.13 216.82-22.85 216.82-18.15L216.82-18.15 216.82-7.05ZM206.72-4.5Q207.57-4.5 208.27-5.15 208.97-5.8 209.42-7L209.42-7 209.42-12.15 208.52-12.15Q206.47-12.15 205.55-11.18 204.63-10.2 204.63-8.1L204.63-8.1Q204.63-6.35 205.17-5.43 205.72-4.5 206.72-4.5L206.72-4.5ZM235.02-27.4Q237.87-27.4 239.5-25.35 241.12-23.3 241.12-19.85L241.12-19.85 241.12 0 233.57 0 233.57-19.05Q233.57-21.65 232.12-21.65L232.12-21.65Q230.67-21.65 228.97-18.45L228.97-18.45 228.97 0 221.42 0 221.42-26.55 227.97-26.55 228.52-23.4Q229.82-25.4 231.37-26.4 232.92-27.4 235.02-27.4L235.02-27.4ZM259.02-27.4Q261.87-27.4 263.5-25.35 265.12-23.3 265.12-19.85L265.12-19.85 265.12 0 257.57 0 257.57-19.05Q257.57-21.65 256.12-21.65L256.12-21.65Q254.67-21.65 252.97-18.45L252.97-18.45 252.97 0 245.42 0 245.42-26.55 251.97-26.55 252.52-23.4Q253.82-25.4 255.37-26.4 256.92-27.4 259.02-27.4L259.02-27.4ZM289.62-13.8Q289.62-12.2 289.47-11.05L289.47-11.05 275.97-11.05Q276.22-7.45 277.29-6.08 278.37-4.7 280.42-4.7L280.42-4.7Q281.77-4.7 283.02-5.23 284.27-5.75 285.72-6.85L285.72-6.85 288.82-2.75Q285.12 0.85 279.87 0.85L279.87 0.85Q274.27 0.85 271.37-2.83 268.47-6.5 268.47-13.1L268.47-13.1Q268.47-19.7 271.24-23.55 274.02-27.4 279.17-27.4L279.17-27.4Q284.07-27.4 286.84-23.93 289.62-20.45 289.62-13.8L289.62-13.8ZM282.27-15.6L282.27-15.95Q282.27-19.35 281.59-20.88 280.92-22.4 279.22-22.4L279.22-22.4Q277.72-22.4 276.94-20.93 276.17-19.45 275.97-15.6L275.97-15.6 282.27-15.6ZM305.76-27.3Q306.81-27.3 307.86-26.9L307.86-26.9 306.61-19.65Q305.71-19.95 304.76-19.95L304.76-19.95Q302.91-19.95 301.99-18.53 301.06-17.1 300.46-14.25L300.46-14.25 300.46 0 292.91 0 292.91-26.55 299.46-26.55 300.01-22.2Q301.91-27.3 305.76-27.3L305.76-27.3Z" opacity="1" transform="matrix(1,0,0,1,0,0)" fill="#000000" class="wordmark-text-0" data-fill-palette-color="primary" id="text-0"></path></svg></g></svg></g></svg></g></svg></g><g transform="matrix(1,0,0,1,161.06640718017354,0)"><svg viewBox="0 0 73.38718563965287 91.82953828086771" height="91.82953828086771" width="73.38718563965287"><g><svg xmlns="http://www.w3.org/2000/svg" xmlns:xlink="http://www.w3.org/1999/xlink" version="1.1" x="0" y="0" viewBox="11.600000000000001 2.4 76.80000000000001 96.1" style="enable-background:new 0 0 100 100;" xml:space="preserve" height="91.82953828086771" width="73.38718563965287" class="icon-icon-0" data-fill-palette-color="accent" id="icon-0"><path d="M88.3 29.9l-0.1-0.4c-0.2-0.6-0.5-1.1-0.9-1.5L63.2 3.6c-0.3-0.3-0.6-0.5-1-0.7l-1.3-0.4L22.8 2.4c-6.2 0-11.2 5-11.2 11.2v73.7c0 6.2 5 11.2 11.2 11.2h54.4c6.2 0 11.2-5 11.2-11.2V30.9L88.3 29.9zM63.4 15.3l12.6 12.8h-9.4c-1.7 0-3.1-1.4-3.1-3.1V15.3zM45.7 40.9h-6.6v6.6c0 1.4-1.2 2.6-2.6 2.6-1.4 0-2.6-1.2-2.6-2.6v-6.6h-6.6c-1.4 0-2.6-1.2-2.6-2.6s1.2-2.6 2.6-2.6h6.6v-6.6c0-1.4 1.2-2.6 2.6-2.6 1.4 0 2.6 1.2 2.6 2.6v6.6h6.6c1.4 0 2.6 1.2 2.6 2.6S47.1 40.9 45.7 40.9zM77.6 86H62.3v-3.7h15.2V86zM77.6 76.3H49.2v-3.7h28.4V76.3zM77.6 66.9H49.2v-3.7h28.4V66.9z" fill="#000000" data-fill-palette-color="accent"></path></svg></g></svg></g><g></g></svg></g><defs></defs></svg><rect width="395.5199999999999" height="157.5362175052161" fill="none" stroke="none" visibility="hidden"></rect></g></svg></g></svg>