<?xml version="1.0" standalone="no"?>
<!DOCTYPE svg PUBLIC "-//W3C//DTD SVG 20010904//EN"
 "http://www.w3.org/TR/2001/REC-SVG-20010904/DTD/svg10.dtd">
<svg version="1.0" xmlns="http://www.w3.org/2000/svg"
 width="900.000000pt" height="777.000000pt" viewBox="0 0 900.000000 777.000000"
 preserveAspectRatio="xMidYMid meet">
<metadata>
Created by potrace 1.10, written by Peter Selinger 2001-2011
</metadata>
<g transform="translate(0.000000,777.000000) scale(0.100000,-0.100000)"
fill="#004aa9" stroke="none">
<path d="M6271 7520 c-45 -5 -111 -16 -145 -24 -33 -8 -95 -22 -136 -32 -41
-9 -79 -21 -84 -25 -6 -5 -17 -9 -25 -9 -9 0 -29 -7 -45 -15 -15 -8 -33 -15
-38 -15 -9 0 -92 -36 -158 -69 -119 -59 -228 -126 -340 -211 -50 -38 -209
-191 -564 -542 -176 -175 -328 -320 -338 -324 -10 -3 -25 -1 -33 3 -8 5 -159
151 -334 324 -403 398 -471 463 -551 525 -98 77 -244 168 -312 197 -16 6 -28
14 -28 18 0 4 -11 10 -25 13 -14 4 -49 17 -78 31 -113 52 -218 83 -467 138
-36 8 -151 12 -335 11 -253 0 -289 -3 -375 -23 -52 -12 -117 -27 -145 -32 -27
-6 -54 -15 -60 -20 -5 -5 -15 -9 -23 -9 -8 0 -28 -6 -45 -13 -18 -8 -70 -29
-117 -47 -47 -18 -106 -45 -133 -61 -26 -16 -50 -29 -53 -29 -13 0 -134 -77
-219 -140 -119 -88 -323 -289 -395 -390 -116 -163 -175 -265 -242 -420 -64
-146 -122 -361 -141 -513 -24 -205 -10 -564 28 -704 42 -155 70 -247 85 -278
5 -11 18 -42 30 -70 20 -47 50 -108 107 -215 31 -59 134 -202 203 -282 83 -96
460 -476 2213 -2227 885 -883 1610 -1608 1612 -1609 9 -9 330 0 342 10 15 12
18 42 3 33 -5 -3 -24 2 -42 11 -29 15 -3407 3383 -3829 3818 -181 187 -271
309 -355 486 -25 52 -50 103 -55 112 -5 10 -9 23 -9 30 0 7 -6 25 -14 39 -7
14 -23 68 -36 120 -12 52 -26 104 -30 115 -17 44 -33 309 -26 444 8 160 9 163
66 400 6 25 17 59 25 77 8 17 15 36 15 42 0 6 4 19 9 29 5 9 27 53 48 97 50
106 115 214 180 301 64 86 272 297 334 339 24 16 46 32 49 35 3 4 23 17 45 30
22 13 45 29 52 36 18 17 251 130 308 148 28 9 59 20 70 25 31 14 102 32 185
46 41 7 99 18 129 24 65 13 376 14 446 0 28 -5 86 -15 130 -23 98 -18 160 -34
202 -52 17 -8 36 -14 42 -14 6 0 19 -4 29 -10 9 -5 40 -19 67 -30 127 -54 284
-147 406 -242 9 -7 221 -214 470 -460 250 -246 472 -461 494 -477 49 -37 83
-39 134 -7 21 14 183 168 358 343 451 448 594 587 628 609 17 10 35 23 42 29
25 20 39 31 83 60 64 42 74 48 186 104 55 27 113 53 127 56 15 4 30 11 33 16
3 5 12 9 21 9 8 0 29 6 46 14 47 21 109 36 322 77 69 14 366 14 443 0 34 -6
90 -16 125 -21 66 -11 162 -36 187 -49 9 -5 31 -12 50 -16 19 -4 41 -11 50
-16 8 -4 65 -31 125 -60 97 -46 190 -97 220 -121 6 -5 42 -32 80 -60 143 -106
349 -334 445 -492 38 -63 105 -206 132 -281 62 -173 83 -266 104 -459 16 -149
16 -166 0 -309 -29 -263 -72 -412 -183 -632 -109 -217 -239 -378 -541 -666
l-93 -89 -428 0 -427 0 -42 36 c-23 19 -42 41 -42 47 0 12 -320 654 -356 714
-26 44 -75 66 -111 51 -55 -24 -16 47 -407 -732 -221 -440 -308 -604 -329
-620 -20 -15 -43 -21 -79 -21 -45 0 -53 3 -82 37 -17 20 -80 133 -139 252
-113 226 -136 256 -194 256 -52 -1 -74 -28 -160 -205 -135 -276 -166 -323
-227 -342 -74 -23 -119 21 -210 207 -26 52 -54 109 -63 125 -21 39 -384 767
-453 908 -47 95 -58 111 -93 129 -38 19 -41 19 -78 3 -36 -17 -45 -32 -207
-354 -232 -459 -230 -455 -266 -474 -27 -14 -84 -17 -403 -19 l-371 -3 -39
-31 c-33 -27 -38 -37 -41 -80 -3 -43 1 -54 28 -84 l31 -35 475 0 475 0 20 25
c10 14 64 115 119 225 117 233 143 265 216 265 41 0 51 -5 83 -38 25 -26 130
-227 349 -664 172 -344 324 -637 339 -652 35 -36 83 -35 123 2 19 16 72 111
141 246 60 121 121 230 134 242 35 32 89 41 131 21 42 -21 63 -54 186 -299 58
-115 110 -206 125 -218 38 -29 85 -26 120 8 15 16 93 159 172 318 420 844 487
975 523 1008 28 25 36 28 85 24 72 -6 78 -14 204 -266 65 -130 112 -211 131
-227 l30 -25 548 0 548 0 44 36 c88 73 361 349 458 463 30 35 60 69 65 75 26
29 175 267 175 280 0 4 10 23 23 44 26 42 102 231 124 307 14 48 25 93 61 255
24 109 24 543 0 650 -57 256 -67 293 -79 305 -5 5 -9 18 -9 28 0 21 -10 44
-78 187 -43 92 -135 253 -157 276 -5 6 -17 22 -25 34 -72 109 -277 320 -405
416 -123 93 -196 138 -330 203 -121 58 -152 71 -167 71 -8 0 -18 4 -23 8 -14
12 -93 40 -145 51 -25 6 -74 17 -110 26 -36 8 -90 20 -120 25 -77 14 -458 21
-559 10z"/>
<path d="M6265 2353 c-68 -5 -333 -61 -350 -73 -5 -4 -27 -11 -49 -14 -21 -4
-46 -11 -55 -15 -9 -5 -38 -19 -66 -31 -78 -34 -226 -110 -235 -119 -3 -4 -30
-23 -60 -43 -95 -65 -246 -220 -317 -326 -45 -68 -132 -241 -133 -262 0 -9 -4
-20 -9 -25 -15 -15 -54 -181 -71 -300 -6 -38 -15 -95 -20 -126 -21 -118 -6
-494 20 -522 4 -5 11 24 14 65 14 150 73 416 112 505 8 17 14 36 14 43 0 18
110 236 152 301 132 207 348 394 576 500 48 22 95 44 104 50 10 5 23 9 29 9 6
0 25 6 42 14 18 8 57 21 87 30 30 8 87 24 125 34 89 25 173 39 355 57 252 25
320 26 327 9 9 -23 -13 -32 -60 -27 -23 3 -62 -1 -87 -7 -25 -6 -79 -17 -120
-25 -138 -25 -253 -55 -292 -76 -10 -5 -23 -9 -29 -9 -24 0 -199 -84 -299
-144 -80 -47 -92 -55 -123 -81 -7 -6 -39 -31 -72 -57 -96 -73 -168 -155 -319
-358 -41 -56 -94 -150 -145 -255 -59 -124 -71 -152 -71 -168 0 -9 -4 -18 -9
-22 -5 -3 -13 -20 -17 -37 -3 -18 -13 -43 -21 -55 -22 -34 -12 -47 53 -68 33
-11 64 -22 69 -26 6 -4 26 -10 45 -14 19 -4 40 -11 45 -15 6 -5 37 -13 70 -20
33 -7 96 -19 140 -28 96 -19 381 -22 466 -5 206 42 345 131 511 326 43 50 78
94 78 98 0 4 6 14 13 21 13 14 45 60 63 93 6 11 28 52 49 90 21 39 41 75 46
80 4 6 28 49 52 95 170 326 313 539 443 658 80 75 91 109 42 134 -18 9 -67 26
-108 38 -41 12 -89 26 -106 31 -77 23 -246 53 -389 69 -82 9 -414 11 -510 3z"/>
</g>
</svg>
