 <svg  version="1.0" xmlns="http://www.w3.org/2000/svg"  width="178.000000pt" height="152.000000pt" viewBox="0 0 178.000000 152.000000"  preserveAspectRatio="xMidYMid meet">  <g transform="translate(0.000000,152.000000) scale(0.100000,-0.100000)" fill="#ffffff" stroke="none"> <path d="M343 1455 c-103 -32 -204 -121 -251 -223 -24 -50 -27 -69 -27 -162 0 -173 -8 -161 460 -638 380 -385 398 -402 434 -402 36 0 32 4 -362 398 -219 218 -412 416 -428 439 -16 24 -37 62 -45 85 -22 59 -22 171 0 236 52 153 225 260 381 234 99 -16 150 -47 272 -165 l113 -109 112 107 c62 59 135 118 161 132 176 89 387 19 476 -158 37 -74 47 -148 31 -225 -16 -78 -39 -120 -101 -188 l-52 -57 -96 3 -96 3 -42 80 c-22 44 -46 81 -52 83 -5 2 -42 -60 -81 -137 -81 -164 -92 -170 -133 -86 -15 30 -33 55 -40 55 -7 0 -25 -25 -40 -55 -17 -36 -33 -55 -44 -55 -13 0 -38 39 -88 137 -38 76 -75 139 -82 141 -7 2 -31 -33 -55 -82 l-42 -86 -66 0 c-84 0 -110 -8 -110 -32 0 -17 7 -18 101 -16 l101 3 25 45 c29 51 43 64 58 49 5 -5 39 -67 75 -137 36 -71 72 -128 81 -130 10 -2 22 12 34 39 20 44 40 69 56 69 5 0 21 -25 36 -55 16 -31 34 -55 43 -55 9 0 41 51 85 138 43 84 76 137 85 137 8 0 28 -24 43 -52 l28 -53 117 0 117 0 58 62 c32 34 72 91 90 127 30 61 32 73 32 171 0 97 -2 110 -32 172 -40 84 -107 151 -193 192 -60 29 -73 31 -170 31 -96 0 -110 -3 -165 -29 -41 -20 -93 -62 -163 -130 l-102 -99 -98 94 c-53 53 -113 105 -132 116 -83 50 -226 67 -317 38z"/> <path d="M1217 409 c-80 -19 -153 -73 -187 -140 -20 -39 -44 -156 -38 -186 2 -10 14 13 26 53 35 114 97 178 206 213 64 20 166 33 166 21 0 -4 -22 -10 -49 -13 -66 -8 -138 -43 -188 -93 -41 -41 -93 -129 -93 -158 0 -21 54 -36 129 -36 101 0 135 27 215 173 21 38 52 84 69 103 25 29 28 37 16 44 -43 27 -193 38 -272 19z"/> </g> </svg> 